#!OML:ASF H:\BabyWalks\Project 1\Capture day 1\Session 1\baby.ASF
:FULLY-SPECIFIED
:DEGREES
492
root 8.13922 23.6791 0.229666 -179.359 81.8582 -183.08
lowerback 18.229 -0.977516 -0.36287
upperback 1.85372 -0.914433 3.11819
thorax -8.16403 -0.300864 3.79831
lowerneck -2.85537 -2.17172 4.79291
upperneck -10.3442 -3.57487 -11.7018
head -2.86113 -1.45923 -4.29436
rclavicle -3.33958e-014 3.18055e-015
rhumerus -41.927 4.94792 -63.2232
rradius 40.6288
rwrist 5.95201
rhand -16.0548 -17.3025
rfingers 7.12502
rthumb 10.1473 -47.0378
lclavicle -3.33958e-014 3.18055e-015
lhumerus -26.2202 -9.0002 59.5237
lradius 61.1564
lwrist -10.9775
lhand -0.645488 -1.43265
lfingers 7.12502
lthumb 24.972 26.9555
rfemur -2.49641 8.41159 20.2542
rtibia 23.0463
rfoot 13.1088 -2.23344
rtoes -0.1299
lfemur -16.5386 -11.0799 -10.9438
ltibia 25.8736
lfoot 8.92404 -15.9569
ltoes -14.8144
493
root 8.18981 23.8104 0.237942 -178.183 81.8301 -181.44
lowerback 18.7468 -0.951515 -0.0654138
upperback 2.04604 -0.791121 3.19228
thorax -8.25017 -0.242832 3.68786
lowerneck -2.77494 -2.16131 4.80765
upperneck -10.2126 -3.54878 -11.6203
head -2.83269 -1.45371 -4.27021
rclavicle 2.38542e-014 8.74653e-015
rhumerus -41.5752 5.19222 -63.4119
rradius 40.7973
rwrist 5.70294
rhand -15.936 -16.8471
rfingers 7.12502
rthumb 10.2619 -46.5768
lclavicle 2.38542e-014 8.74653e-015
lhumerus -26.2071 -9.94415 60.3245
lradius 60.9434
lwrist -11.1032
lhand -0.400015 -1.39774
lfingers 7.12502
lthumb 25.2072 26.9575
rfemur -2.12219 8.44994 20.383
rtibia 22.3638
rfoot 12.026 -2.58587
rtoes -1.06012
lfemur -16.4179 -10.9999 -10.7665
ltibia 25.7734
lfoot 7.87396 -15.9758
ltoes -15.4986
494
root 8.24263 23.9288 0.245411 -177.522 81.832 -180.354
lowerback 19.2203 -0.911989 0.15501
upperback 2.24106 -0.66792 3.23509
thorax -8.30624 -0.183624 3.58479
lowerneck -2.67279 -2.1549 4.86189
upperneck -10.16 -3.53241 -11.5236
head -2.83254 -1.45163 -4.24805
rclavicle 4.57205e-015 -2.38542e-015
rhumerus -41.2923 5.48799 -63.6514
rradius 41.0601
rwrist 5.413
rhand -15.9497 -16.3081
rfingers 7.12502
rthumb 10.2487 -46.0385
lclavicle 4.57205e-015 -2.38542e-015
lhumerus -26.2882 -10.7962 61.0814
lradius 60.9348
lwrist -11.1741
lhand -0.223904 -1.2987
lfingers 7.12502
lthumb 25.3759 27.0327
rfemur -1.83908 8.45186 20.3994
rtibia 21.7619
rfoot 11.0933 -2.97266
rtoes -2.013
lfemur -16.305 -10.8608 -10.6786
ltibia 25.6707
lfoot 6.96373 -16.0085
ltoes -16.0504
495
root 8.29674 24.0344 0.252412 -177.207 81.8651 -179.679
lowerback 19.6341 -0.862827 0.309736
upperback 2.4306 -0.54887 3.25537
thorax -8.33299 -0.12549 3.49316
lowerneck -2.58258 -2.15425 4.96045
upperneck -10.161 -3.52788 -11.4358
head -2.84803 -1.45513 -4.23634
rclavicle -7.35503e-015 3.73715e-014
rhumerus -41.0625 5.82135 -63.9301
rradius 41.4051
rwrist 5.07111
rhand -16.0971 -15.74
rfingers 7.12502
rthumb 10.1065 -45.4773
lclavicle -7.35503e-015 3.73715e-014
lhumerus -26.455 -11.5229 61.7924
lradius 61.0847
lwrist -11.1718
lhand -0.158703 -1.17677
lfingers 7.12502
lthumb 25.4384 27.1457
rfemur -1.69211 8.40001 20.3201
rtibia 21.2901
rfoot 10.3374 -3.33704
rtoes -3.00876
lfemur -16.2367 -10.6804 -10.6475
ltibia 25.5727
lfoot 6.1964 -16.1121
ltoes -16.5091
496
root 8.35147 24.1284 0.259289 -177.141 81.9271 -179.337
lowerback 19.9745 -0.802874 0.410249
upperback 2.60667 -0.43154 3.25616
thorax -8.33269 -0.067752 3.40927
lowerneck -2.48675 -2.16049 5.07737
upperneck -10.2308 -3.53533 -11.3315
head -2.88598 -1.46331 -4.22266
rclavicle -2.0276e-014 2.94201e-014
rhumerus -40.8862 6.16683 -64.2351
rradius 41.8253
rwrist 4.68153
rhand -16.3785 -15.1986
rfingers 7.12502
rthumb 9.83496 -44.9489
lclavicle -2.0276e-014 2.94201e-014
lhumerus -26.6967 -12.1346 62.4546
lradius 61.366
lwrist -11.0664
lhand -0.21549 -1.05043
lfingers 7.12502
lthumb 25.384 27.2798
rfemur -1.71337 8.29987 20.1537
rtibia 20.9749
rfoot 9.74624 -3.65133
rtoes -3.94267
lfemur -16.2449 -10.4896 -10.6508
ltibia 25.4872
lfoot 5.57397 -16.3104
ltoes -16.862
497
root 8.40629 24.2109 0.266398 -177.205 82.019 -179.224
lowerback 20.232 -0.733191 0.466742
upperback 2.76305 -0.315913 3.24249
thorax -8.30762 -0.0107877 3.33303
lowerneck -2.38483 -2.17412 5.20401
upperneck -10.3608 -3.55444 -11.2105
head -2.9438 -1.47614 -4.20545
rclavicle -4.37326e-015 7.95139e-015
rhumerus -40.7581 6.52491 -64.5644
rradius 42.3081
rwrist 4.24058
rhand -16.7883 -14.7318
rfingers 7.12502
rthumb 9.43964 -44.5004
lclavicle -4.37326e-015 7.95139e-015
lhumerus -27.002 -12.632 63.0668
lradius 61.7389
lwrist -10.8537
lhand -0.395456 -0.934312
lfingers 7.12502
lthumb 25.2115 27.4203
rfemur -1.9127 8.16024 19.9199
rtibia 20.8177
rfoot 9.29579 -3.88229
rtoes -4.80338
lfemur -16.353 -10.3111 -10.6641
ltibia 25.4296
lfoot 5.06037 -16.6081
ltoes -17.151
498
root 8.46013 24.2818 0.273995 -177.28 82.1331 -179.23
lowerback 20.4065 -0.65844 0.495778
upperback 2.89267 -0.204488 3.21982
thorax -8.26594 0.0437572 3.26215
lowerneck -2.28419 -2.19409 5.32974
upperneck -10.5363 -3.58255 -11.0735
head -3.01552 -1.49268 -4.18315
rclavicle -1.31198e-014 -4.37326e-014
rhumerus -40.6664 6.88295 -64.9081
rradius 42.8324
rwrist 3.75849
rhand -17.3161 -14.3525
rfingers 7.12502
rthumb 8.93036 -44.1436
lclavicle -1.31198e-014 -4.37326e-014
lhumerus -27.3638 -13.0321 63.6279
lradius 62.175
lwrist -10.534
lhand -0.698145 -0.853355
lfingers 7.12502
lthumb 24.9215 27.5418
rfemur -2.29521 7.97354 19.64
rtibia 20.8117
rfoot 8.96128 -3.99136
rtoes -5.62516
lfemur -16.5823 -10.1647 -10.6633
ltibia 25.4051
lfoot 4.6367 -16.9965
ltoes -17.3774
499
root 8.51279 24.3408 0.282308 -177.323 82.2679 -179.312
lowerback 20.4984 -0.580419 0.501818
upperback 2.99359 -0.0987786 3.18939
thorax -8.21044 0.0949874 3.19626
lowerneck -2.18086 -2.21778 5.44575
upperneck -10.746 -3.61495 -10.9171
head -3.09794 -1.51081 -4.1532
rclavicle -2.5842e-014 -2.62396e-014
rhumerus -40.6038 7.2339 -65.2632
rradius 43.3834
rwrist 3.24062
rhand -17.9292 -14.0768
rfingers 7.12502
rthumb 8.33869 -43.8922
lclavicle -2.5842e-014 -2.62396e-014
lhumerus -27.7694 -13.3351 64.1364
lradius 62.6386
lwrist -10.1365
lhand -1.09656 -0.808954
lfingers 7.12502
lthumb 24.5396 27.6385
rfemur -2.84788 7.74945 19.3302
rtibia 20.9427
rfoot 8.71179 -3.96141
rtoes -6.42806
lfemur -16.9338 -10.065 -10.6382
ltibia 25.4162
lfoot 4.27287 -17.4497
ltoes -17.5384
500
root 8.56402 24.3884 0.291385 -177.396 82.4214 -179.524
lowerback 20.5157 -0.500245 0.480203
upperback 3.06321 -0.00152213 3.1478
thorax -8.14842 0.141646 3.13561
lowerneck -2.07626 -2.23923 5.55601
upperneck -10.9708 -3.64328 -10.7543
head -3.18462 -1.52681 -4.12045
rclavicle 1.59028e-015 -3.18055e-015
rhumerus -40.5571 7.57403 -65.6279
rradius 43.925
rwrist 2.70862
rhand -18.5898 -13.8974
rfingers 7.12502
rthumb 7.7011 -43.7371
lclavicle 1.59028e-015 -3.18055e-015
lhumerus -28.2135 -13.5644 64.5897
lradius 63.1068
lwrist -9.68728
lhand -1.55799 -0.802838
lfingers 7.12502
lthumb 24.0973 27.704
rfemur -3.55869 7.5095 18.9904
rtibia 21.1995
rfoot 8.52075 -3.80686
rtoes -7.19896
lfemur -17.3946 -10.02 -10.5977
ltibia 25.4557
lfoot 3.93639 -17.9344
ltoes -17.6526
501
root 8.614 24.425 0.301093 -177.549 82.5918 -179.904
lowerback 20.464 -0.421524 0.427092
upperback 3.10537 0.0822024 3.0956
thorax -8.07844 0.181475 3.08464
lowerneck -1.98071 -2.25277 5.65267
upperneck -11.1913 -3.65934 -10.5897
head -3.2673 -1.53697 -4.08526
rclavicle 1.59028e-015 -6.36111e-015
rhumerus -40.5107 7.89493 -65.9945
rradius 44.4368
rwrist 2.19099
rhand -19.2708 -13.7864
rfingers 7.12502
rthumb 7.04378 -43.6491
lclavicle 1.59028e-015 -6.36111e-015
lhumerus -28.6849 -13.7121 64.991
lradius 63.5532
lwrist -9.22617
lhand -2.04866 -0.820761
lfingers 7.12502
lthumb 23.6267 27.7475
rfemur -4.40906 7.26334 18.6247
rtibia 21.5712
rfoot 8.37345 -3.52368
rtoes -7.97031
lfemur -17.944 -10.0371 -10.5476
ltibia 25.5107
lfoot 3.60419 -18.4042
ltoes -17.7256
502
root 8.66283 24.4503 0.311477 -177.906 82.7772 -180.561
lowerback 20.3515 -0.342662 0.32968
upperback 3.12362 0.152217 3.03158
thorax -8.00131 0.214804 3.04968
lowerneck -1.89443 -2.25579 5.7354
upperneck -11.3936 -3.66027 -10.4385
head -3.34173 -1.53958 -4.05234
rclavicle 7.95139e-015 -4.77083e-015
rhumerus -40.4558 8.18582 -66.354
rradius 44.8958
rwrist 1.71438
rhand -19.931 -13.722
rfingers 7.12502
rthumb 6.40641 -43.6051
lclavicle 7.95139e-015 -4.77083e-015
lhumerus -29.1765 -13.7878 65.3479
lradius 63.9662
lwrist -8.78981
lhand -2.53328 -0.84089
lfingers 7.12502
lthumb 23.1618 27.7866
rfemur -5.37891 7.03651 18.2267
rtibia 22.0478
rfoot 8.24873 -3.13667
rtoes -8.68069
lfemur -18.5574 -10.1146 -10.5041
ltibia 25.5625
lfoot 3.2734 -18.8187
ltoes -17.7399
503
root 8.71088 24.4641 0.322398 -178.56 82.9719 -181.573
lowerback 20.188 -0.26433 0.188067
upperback 3.12014 0.20823 2.95256
thorax -7.91976 0.24153 3.0275
lowerneck -1.83789 -2.24877 5.81554
upperneck -11.5522 -3.64772 -10.3198
head -3.39744 -1.53625 -4.02959
rclavicle 7.15625e-015 1.03368e-014
rhumerus -40.3941 8.4316 -66.7009
rradius 45.2917
rwrist 1.29525
rhand -20.541 -13.6822
rfingers 7.12502
rthumb 5.81755 -43.5823
lclavicle 7.15625e-015 1.03368e-014
lhumerus -29.6702 -13.8006 65.6637
lradius 64.315
lwrist -8.41604
lhand -2.98498 -0.866328
lfingers 7.12502
lthumb 22.7284 27.815
rfemur -6.44098 6.84274 17.795
rtibia 22.6125
rfoot 8.12952 -2.65585
rtoes -9.35175
lfemur -19.211 -10.2406 -10.4795
ltibia 25.5976
lfoot 2.93599 -19.1541
ltoes -17.703
